<svg width="32" height="33" viewBox="0 0 32 33" fill="none" xmlns="http://www.w3.org/2000/svg">
<g clip-path="url(#clip0_99_73204)">
<circle cx="16" cy="16.4366" r="16" fill="#4640DE"/>
<mask id="path-2-inside-1_99_73204" fill="white">
<path d="M16 27.4366C18.6652 27.4366 21.3304 25.3319 23.0607 23.6156C23.4599 23.2197 22.9792 22.6488 22.4822 22.9115C20.6013 23.9056 18.0181 25.0366 16 25.0366C13.9819 25.0366 11.3987 23.9056 9.5178 22.9115C9.02076 22.6488 8.54012 23.2197 8.93926 23.6156C10.6696 25.3319 13.3348 27.4366 16 27.4366Z"/>
</mask>
<path d="M23.0607 23.6156L25.1734 25.7455V25.7455L23.0607 23.6156ZM8.93926 23.6156L6.82658 25.7455H6.82658L8.93926 23.6156ZM9.5178 22.9115L10.9197 20.2592L10.9197 20.2592L9.5178 22.9115ZM22.4822 22.9115L21.0803 20.2592L21.0803 20.2592L22.4822 22.9115ZM20.948 21.4857C20.1783 22.2493 19.2652 23.0319 18.3201 23.6078C17.3491 24.1993 16.5672 24.4366 16 24.4366V30.4366C18.098 30.4366 19.9813 29.6215 21.4419 28.7317C22.9282 27.8261 24.2129 26.6983 25.1734 25.7455L20.948 21.4857ZM16 24.4366C15.4328 24.4366 14.6509 24.1993 13.6799 23.6078C12.7348 23.0319 11.8217 22.2493 11.052 21.4857L6.82658 25.7455C7.78708 26.6983 9.07177 27.8261 10.5581 28.7317C12.0187 29.6215 13.902 30.4366 16 30.4366V24.4366ZM8.11593 25.5638C9.1314 26.1005 10.3827 26.6995 11.6934 27.1703C12.967 27.6277 14.4921 28.0366 16 28.0366V22.0366C15.4899 22.0366 14.7143 21.88 13.7216 21.5235C12.7658 21.1802 11.7851 20.7166 10.9197 20.2592L8.11593 25.5638ZM16 28.0366C17.5079 28.0366 19.033 27.6277 20.3066 27.1703C21.6173 26.6995 22.8686 26.1005 23.8841 25.5638L21.0803 20.2592C20.2149 20.7166 19.2342 21.1802 18.2785 21.5235C17.2857 21.88 16.5101 22.0366 16 22.0366V28.0366ZM25.1734 25.7455C25.7674 25.1563 26.1776 24.3361 26.2071 23.3959C26.2356 22.4917 25.905 21.6892 25.4152 21.0996C24.4114 19.8913 22.6321 19.439 21.0803 20.2592L23.8841 25.5638C22.8293 26.1213 21.5389 25.8231 20.7999 24.9336C20.4425 24.5033 20.1883 23.9014 20.2101 23.2074C20.2331 22.4773 20.5536 21.8769 20.948 21.4857L25.1734 25.7455ZM11.052 21.4857C11.4464 21.8769 11.7669 22.4773 11.7899 23.2074C11.8117 23.9014 11.5575 24.5033 11.2001 24.9336C10.4611 25.8231 9.17068 26.1213 8.11593 25.5638L10.9197 20.2592C9.36787 19.439 7.5886 19.8913 6.58483 21.0996C6.09504 21.6892 5.76443 22.4917 5.79286 23.3959C5.82241 24.3361 6.23259 25.1563 6.82658 25.7455L11.052 21.4857Z" fill="white" mask="url(#path-2-inside-1_99_73204)"/>
<path d="M16.2532 6C11.832 6 8.24951 7.27921 8.24951 8.85722C8.24951 9.15994 8.38269 9.45159 8.62713 9.72542L8.62495 9.72571C9.76452 11.1149 13.9643 16.036 13.9643 17.4289V20.5361C13.9643 21.3464 14.9962 22.0004 16.2501 22.0004C17.504 22.0004 18.5359 21.3464 18.5359 20.5361V17.5686C18.5359 17.5243 18.5362 17.4779 18.5362 17.4289C18.5362 16.036 22.6789 11.1941 23.9289 9.64517V9.6451C24.1432 9.39484 24.2495 9.13051 24.2495 8.85722C24.2495 7.27921 20.6743 6 16.2532 6ZM16.2565 10.5716C12.9686 10.5716 9.96659 9.78582 9.96659 8.85722C9.96659 7.92862 12.9329 7.14289 16.2565 7.14289C19.5801 7.14289 22.5463 7.94337 22.5463 8.85722C22.5463 9.77107 19.5444 10.5716 16.2565 10.5716Z" fill="white"/>
</g>
<defs>
<clipPath id="clip0_99_73204">
<rect width="32" height="32" fill="white" transform="translate(0 0.436615)"/>
</clipPath>
</defs>
</svg>
